<?xml version="1.0" standalone="no"?>
<!DOCTYPE svg PUBLIC "-//W3C//DTD SVG 20010904//EN"
 "http://www.w3.org/TR/2001/REC-SVG-20010904/DTD/svg10.dtd">
<svg version="1.0" xmlns="http://www.w3.org/2000/svg"
 width="512.000000pt" height="512.000000pt" viewBox="0 0 512.000000 512.000000"
 preserveAspectRatio="xMidYMid meet">

<g transform="translate(0.000000,512.000000) scale(0.100000,-0.100000)"
fill="#9d9d9d" stroke="none">
<path d="M850 5104 c-204 -43 -379 -211 -445 -424 -12 -39 -19 -107 -22 -232
l-6 -177 -50 -11 c-119 -25 -199 -85 -249 -188 l-33 -67 0 -760 0 -760 29 -62
c49 -106 151 -184 260 -199 l45 -7 3 -861 c3 -801 5 -865 22 -916 73 -221 244
-382 451 -425 105 -22 2026 -22 2130 0 84 18 176 61 244 116 l50 39 45 -44
c52 -53 139 -99 216 -116 40 -8 202 -11 595 -8 l540 3 60 24 c182 72 307 225
335 407 7 45 10 270 8 639 l-3 570 -23 51 c-43 94 -136 163 -243 179 -39 6
-94 -2 -143 -21 -9 -4 -16 7 -21 32 -18 99 -103 199 -197 230 -50 16 -153 16
-205 -1 -19 -6 -23 -4 -23 12 0 41 -33 114 -72 158 -76 87 -198 124 -300 92
l-48 -15 0 788 c0 546 -3 805 -11 842 -30 140 -130 239 -270 267 l-56 12 -6
177 c-3 125 -10 193 -22 232 -67 217 -241 381 -450 425 -101 21 -2036 21
-2135 -1z m1878 -162 c-1 -5 -16 -44 -33 -87 -34 -90 -76 -139 -132 -154 -52
-15 -1234 -15 -1286 0 -56 15 -98 64 -132 154 -16 43 -31 82 -33 87 -2 4 362
8 808 8 446 0 810 -4 808 -8z m-1748 -132 c61 -153 108 -212 205 -257 l60 -28
675 0 675 0 60 28 c97 46 143 104 205 258 l53 131 35 -5 c62 -11 160 -64 212
-117 96 -95 129 -207 130 -432 l0 -118 -1370 0 -1370 0 0 118 c1 224 34 337
128 431 63 63 167 118 228 120 19 1 29 -18 74 -129z m2562 -738 c20 -13 47
-40 60 -60 l23 -37 3 -464 3 -463 -28 6 c-127 32 -227 11 -306 -63 -89 -83
-92 -91 -95 -363 l-3 -238 -1425 0 c-1181 0 -1430 2 -1457 14 -43 17 -84 67
-97 116 -7 26 -10 274 -8 747 l3 708 23 36 c25 42 62 69 107 80 16 4 734 6
1595 6 l1565 -2 37 -23z m15 -1189 c24 -11 42 -30 54 -57 18 -39 19 -82 19
-769 l0 -728 25 -24 c31 -32 75 -32 112 -1 l28 24 5 404 c6 452 4 444 77 475
47 19 95 10 136 -27 l32 -28 5 -412 5 -412 28 -24 c34 -29 76 -31 108 -5 24
19 24 20 29 298 5 306 8 316 71 349 60 31 127 12 166 -45 23 -33 23 -40 23
-298 l0 -265 29 -29 c31 -31 55 -36 94 -18 39 18 47 50 47 185 0 153 11 183
76 214 69 34 140 6 170 -66 20 -48 20 -1102 0 -1185 -25 -110 -90 -189 -196
-238 l-55 -26 -545 0 -545 0 -54 30 c-42 23 -63 44 -92 90 -114 182 -144 226
-198 288 -95 110 -331 318 -554 488 -116 89 -142 129 -135 214 8 94 86 165
182 165 38 0 87 -21 296 -125 252 -125 295 -140 331 -112 39 30 39 33 39 831
l0 774 27 32 c43 52 97 63 160 33z m-357 -1063 l0 -400 -57 29 c-32 16 -121
59 -198 97 l-140 69 -100 0 c-89 0 -106 -3 -156 -28 -67 -32 -142 -109 -171
-175 -29 -65 -36 -183 -14 -250 30 -89 69 -133 219 -250 275 -214 475 -398
558 -516 l49 -70 -30 -31 c-16 -17 -53 -45 -82 -62 -107 -65 -71 -63 -1158
-63 -1088 0 -1050 -2 -1159 63 -107 64 -182 180 -201 312 -11 78 -14 1657 -3
1668 3 4 600 7 1325 7 l1318 0 0 -400z"/>
<path d="M670 3811 l-30 -29 0 -542 0 -541 25 -25 25 -25 238 3 c222 3 240 4
283 26 74 36 125 87 161 160 29 59 33 76 33 147 -1 90 -27 162 -83 227 l-32
35 21 19 c37 32 69 92 85 156 39 151 -39 314 -184 385 -57 28 -59 28 -285 31
l-227 3 -30 -30z m466 -160 c109 -49 135 -188 50 -269 -47 -46 -74 -52 -232
-52 l-144 0 0 170 0 170 143 0 c117 0 149 -4 183 -19z m-21 -502 c140 -39 164
-235 37 -307 -36 -20 -53 -22 -191 -22 l-151 0 0 170 0 170 133 0 c72 0 150
-5 172 -11z"/>
<path d="M1625 3828 c-45 -26 -44 -16 -45 -586 l0 -543 25 -24 24 -25 291 0
291 0 24 25 c32 31 32 75 1 112 l-24 28 -231 3 -231 3 0 170 0 169 230 0 231
0 24 25 c35 34 33 78 -4 116 l-29 29 -226 0 -226 0 0 170 0 170 229 0 228 0
27 26 c42 43 33 104 -21 132 -30 16 -560 16 -588 0z"/>
<path d="M2459 3811 c-17 -18 -29 -40 -29 -56 0 -16 12 -38 29 -56 l29 -29
141 0 141 0 0 -469 c0 -476 2 -510 38 -537 28 -22 86 -17 110 9 22 23 22 24
22 510 l0 487 144 0 c136 0 146 1 170 23 38 34 39 85 1 122 l-24 25 -371 0
-372 0 -29 -29z"/>
<path d="M945 588 c-32 -17 -45 -39 -45 -79 0 -29 6 -42 26 -58 27 -21 31 -21
994 -21 963 0 967 0 994 21 26 21 35 65 20 104 -18 46 -4 45 -1016 45 -670 -1
-959 -4 -973 -12z"/>
</g>
</svg>
