<?xml version="1.0" standalone="no"?>
<!DOCTYPE svg PUBLIC "-//W3C//DTD SVG 20010904//EN"
 "http://www.w3.org/TR/2001/REC-SVG-20010904/DTD/svg10.dtd">
<svg version="1.0" xmlns="http://www.w3.org/2000/svg"
 width="512.000000pt" height="512.000000pt" viewBox="0 0 512.000000 512.000000"
 preserveAspectRatio="xMidYMid meet">

<g transform="translate(0.000000,512.000000) scale(0.100000,-0.100000)"
fill="#9d9d9d" stroke="none">
<path d="M2407 5105 c-154 -39 -301 -155 -366 -287 l-32 -68 -202 0 c-279 0
-287 -5 -287 -195 l0 -103 -277 -5 c-215 -3 -288 -8 -324 -20 -162 -54 -282
-170 -345 -333 -18 -47 -19 -115 -22 -1869 -2 -1803 -2 -1821 18 -1885 53
-170 209 -298 402 -330 87 -14 3089 -14 3176 0 193 32 349 160 402 330 20 64
20 82 18 1885 -3 1754 -4 1822 -22 1869 -63 163 -183 279 -345 333 -36 12
-109 17 -322 20 l-277 5 -3 117 c-6 178 -10 181 -298 181 l-200 0 -42 80 c-66
128 -173 216 -318 261 -88 27 -254 34 -334 14z m283 -245 c92 -47 158 -124
186 -217 8 -28 24 -63 35 -77 40 -51 63 -56 259 -56 l180 0 0 -245 0 -245
-790 0 -790 0 0 245 0 245 173 0 c227 0 238 5 288 143 37 104 116 185 211 219
72 26 185 20 248 -12z m-1170 -807 c0 -136 3 -162 20 -198 39 -81 -38 -75
1018 -75 l939 0 34 23 c60 40 69 72 69 250 l0 159 258 -4 c213 -3 263 -7 295
-21 65 -28 114 -75 144 -135 l28 -57 3 -1760 c2 -1238 0 -1775 -8 -1811 -20
-92 -97 -155 -217 -174 -78 -13 -3008 -13 -3086 0 -120 19 -197 82 -217 174
-8 36 -10 573 -8 1811 l3 1760 28 57 c26 54 71 99 126 128 42 22 112 28 344
29 l227 1 0 -157z"/>
<path d="M1955 3396 c-16 -8 -118 -98 -225 -200 -107 -102 -198 -186 -201
-186 -3 0 -41 37 -85 83 -100 103 -119 117 -170 117 -84 0 -136 -89 -99 -170
20 -44 288 -314 322 -324 52 -16 94 10 248 155 400 379 401 380 369 457 -26
65 -99 96 -159 68z"/>
<path d="M2394 3096 c-79 -35 -100 -127 -41 -189 27 -29 42 -36 87 -42 30 -3
366 -5 745 -3 658 3 691 4 718 22 57 39 72 106 37 164 -39 64 -16 62 -802 62
-574 -1 -719 -3 -744 -14z"/>
<path d="M1940 2413 c-14 -9 -111 -99 -216 -199 l-191 -183 -99 98 c-110 109
-137 122 -204 95 -58 -23 -84 -87 -60 -149 12 -33 275 -309 307 -324 35 -16
85 -13 113 6 14 9 136 122 273 251 272 259 283 274 254 345 -29 67 -121 99
-177 60z"/>
<path d="M2378 2114 c-54 -29 -74 -109 -41 -165 36 -61 11 -59 803 -59 801 0
772 -2 804 65 20 42 20 68 0 111 -32 67 4 64 -806 64 -629 -1 -737 -3 -760
-16z"/>
<path d="M1965 1450 c-18 -6 -98 -74 -195 -166 -91 -87 -182 -173 -202 -193
l-38 -35 -103 102 c-101 99 -105 102 -149 102 -88 0 -140 -87 -103 -170 20
-44 288 -314 322 -324 64 -20 116 22 504 400 128 125 140 147 113 212 -25 61
-85 90 -149 72z"/>
<path d="M2394 1146 c-115 -51 -90 -212 36 -231 25 -3 360 -5 745 -3 668 3
701 4 728 22 57 39 72 106 37 164 -39 64 -16 62 -802 62 -574 -1 -719 -3 -744
-14z"/>
</g>
</svg>
