<?xml version="1.0" standalone="no"?>
<!DOCTYPE svg PUBLIC "-//W3C//DTD SVG 20010904//EN"
 "http://www.w3.org/TR/2001/REC-SVG-20010904/DTD/svg10.dtd">
<svg version="1.0" xmlns="http://www.w3.org/2000/svg"
 width="512.000000pt" height="512.000000pt" viewBox="0 0 512.000000 512.000000"
 preserveAspectRatio="xMidYMid meet">

<g transform="translate(0.000000,512.000000) scale(0.100000,-0.100000)"
fill="#9d9d9d" stroke="none">
<path d="M2012 5100 c-36 -22 -52 -54 -52 -105 l0 -33 -167 -4 c-139 -3 -174
-6 -201 -21 -35 -19 -71 -82 -72 -124 0 -12 39 -100 86 -194 79 -158 93 -179
160 -246 86 -84 197 -144 304 -163 36 -7 74 -14 85 -16 11 -2 28 -16 37 -31 9
-15 39 -54 67 -86 l51 -58 0 -138 0 -139 -73 -4 c-91 -4 -144 -34 -176 -100
-17 -37 -21 -63 -21 -151 l0 -107 -68 0 c-138 0 -238 -57 -288 -165 l-24 -50
0 -509 c0 -465 -1 -508 -16 -502 -63 24 -135 27 -694 24 l-595 -3 -48 -24
c-26 -13 -65 -44 -87 -69 -71 -80 -70 -72 -70 -744 l0 -599 25 -24 c13 -14 36
-25 50 -25 14 0 37 11 50 25 l25 24 0 598 c0 582 1 599 20 631 38 63 30 62
661 62 646 0 625 2 660 -74 17 -39 19 -81 19 -728 l0 -688 -766 0 c-852 0
-807 4 -862 -68 -27 -35 -27 -37 -27 -202 0 -165 0 -167 27 -202 57 -74 -181
-68 2528 -68 2709 0 2471 -6 2528 68 26 34 27 41 30 175 2 77 1 156 -3 174 -8
43 -72 109 -114 118 l-31 7 0 472 c0 532 -1 540 -70 618 -70 80 -107 92 -310
96 -167 4 -176 3 -202 -18 -35 -27 -38 -80 -8 -110 18 -18 33 -20 175 -20 177
0 213 -9 245 -62 19 -32 20 -49 20 -505 l0 -473 -680 0 -681 0 3 478 c3 441 4
479 21 504 38 55 58 58 377 58 186 0 298 4 311 11 48 25 44 105 -7 128 -40 18
-588 15 -650 -4 -27 -8 -50 -15 -51 -15 -2 0 -3 330 -3 733 l0 732 -24 50
c-50 108 -150 165 -288 165 l-68 0 0 107 c0 88 -4 114 -21 151 -32 66 -85 96
-176 100 l-73 4 0 139 0 138 51 58 c28 32 58 71 67 86 9 15 26 29 37 31 11 2
49 9 85 16 107 19 221 80 305 164 66 66 81 90 159 245 47 95 86 182 86 194 -1
42 -37 105 -72 124 -27 15 -62 18 -200 21 l-168 4 0 33 c0 51 -16 83 -52 105
-32 19 -51 20 -548 20 -497 0 -516 -1 -548 -20z m998 -202 c-1 -261 -106 -547
-269 -730 l-43 -48 -138 0 -139 0 -48 55 c-154 177 -245 416 -260 678 l-6 117
451 0 452 0 0 -72z m-1036 -195 c10 -60 33 -153 52 -208 19 -55 38 -108 41
-118 5 -17 4 -17 -38 -1 -65 26 -153 90 -194 143 -36 44 -145 256 -145 280 0
8 40 11 133 11 l134 0 17 -107z m1456 95 c0 -7 -27 -66 -60 -133 -80 -163
-154 -239 -279 -289 -42 -16 -43 -16 -38 1 3 10 22 63 41 118 19 55 42 148 52
208 l17 107 134 0 c97 0 133 -3 133 -12z m-770 -943 l0 -115 -100 0 -100 0 0
115 0 115 100 0 100 0 0 -115z m258 -277 c8 -8 12 -46 12 -105 l0 -93 -370 0
-370 0 0 93 c0 59 4 97 12 105 17 17 699 17 716 0z m316 -362 c18 -7 42 -26
54 -41 l22 -28 0 -1303 0 -1304 -750 0 -750 0 0 1304 0 1303 22 28 c43 55 30
54 726 55 524 0 649 -3 676 -14z m1736 -2946 l0 -120 -2410 0 -2410 0 0 120 0
120 2410 0 2410 0 0 -120z"/>
<path d="M2446 2259 c-19 -15 -26 -30 -26 -55 0 -49 29 -74 85 -74 l45 0 0
-285 c0 -232 3 -291 15 -314 23 -46 66 -54 109 -20 l26 20 0 354 0 354 -26 20
c-22 18 -41 21 -114 21 -73 0 -92 -3 -114 -21z"/>
<path d="M865 1661 c-83 -37 -151 -147 -129 -209 24 -69 109 -64 138 8 28 71
103 94 151 45 54 -53 31 -102 -164 -363 -105 -141 -116 -161 -107 -196 13 -54
42 -61 245 -60 l184 1 24 27 c29 35 29 58 -1 93 -24 28 -26 28 -125 26 -56 -1
-101 2 -101 7 0 4 36 59 81 121 102 142 130 198 136 269 9 98 -51 198 -143
236 -47 20 -141 17 -189 -5z"/>
<path d="M4045 1436 c-59 -28 -98 -66 -119 -118 -23 -53 -20 -91 7 -116 45
-42 96 -25 126 42 32 73 91 88 143 36 26 -26 30 -36 25 -66 -8 -49 -21 -62
-83 -80 -30 -9 -58 -24 -64 -34 -26 -48 0 -104 53 -115 59 -12 67 -16 82 -45
21 -41 19 -64 -11 -99 -50 -59 -138 -29 -150 51 -12 71 -74 101 -125 59 -20
-16 -24 -28 -23 -68 2 -63 32 -121 84 -166 110 -94 278 -67 355 57 26 43 30
59 30 120 0 59 -5 79 -27 118 l-28 46 25 44 c54 96 42 196 -32 278 -72 80
-173 101 -268 56z"/>
</g>
</svg>
