<?xml version="1.0" standalone="no"?>
<!DOCTYPE svg PUBLIC "-//W3C//DTD SVG 20010904//EN"
 "http://www.w3.org/TR/2001/REC-SVG-20010904/DTD/svg10.dtd">
<svg version="1.0" xmlns="http://www.w3.org/2000/svg"
 width="512.000000pt" height="512.000000pt" viewBox="0 0 512.000000 512.000000"
 preserveAspectRatio="xMidYMid meet">

<g transform="translate(0.000000,512.000000) scale(0.100000,-0.100000)"
fill="#9d9d9d" stroke="none">
<path d="M3965 4953 c-60 -8 -181 -42 -239 -68 -482 -213 -670 -804 -400
-1257 65 -108 194 -237 302 -302 346 -206 789 -151 1073 133 112 112 191 253
235 417 27 103 26 312 -3 419 -92 340 -362 591 -698 650 -81 14 -198 17 -270
8z m35 -323 c0 -129 -3 -160 -14 -160 -7 0 -45 -16 -83 -35 -86 -43 -144 -103
-186 -193 -29 -61 -32 -76 -32 -163 0 -90 2 -99 37 -171 45 -91 103 -147 196
-191 61 -29 76 -32 162 -32 83 0 103 4 158 29 l63 29 112 -112 112 -112 -30
-25 c-42 -35 -159 -90 -235 -111 -88 -24 -271 -24 -360 0 -122 32 -226 93
-321 187 -95 94 -146 176 -187 298 -22 67 -26 95 -26 212 0 126 2 141 31 223
17 48 46 113 64 144 45 75 179 209 254 253 69 41 206 89 253 90 l32 0 0 -160z
m340 119 c84 -32 170 -87 239 -152 101 -97 191 -264 207 -385 l7 -52 -162 0
c-122 0 -161 3 -161 13 0 28 -62 139 -101 181 -39 43 -163 116 -195 116 -11 0
-14 32 -14 161 l0 162 52 -7 c28 -4 86 -21 128 -37z m-186 -441 c86 -26 166
-136 166 -228 0 -124 -116 -240 -240 -240 -63 0 -114 23 -165 75 -102 101
-102 229 0 330 70 71 145 90 239 63z m636 -331 c0 -71 -70 -246 -124 -312
l-25 -30 -112 112 -112 112 26 59 c15 33 27 65 27 71 0 8 48 11 160 11 l160 0
0 -23z"/>
<path d="M1825 3896 c-56 -26 -74 -44 -133 -133 l-42 -62 -54 0 c-89 0 -145
-41 -167 -124 -11 -43 -1 -86 58 -232 l20 -50 -209 -235 c-237 -266 -284 -326
-334 -435 -61 -132 -77 -210 -77 -375 0 -120 4 -159 22 -225 13 -44 24 -86 24
-94 1 -8 -160 -140 -369 -300 l-371 -286 29 -40 c15 -22 37 -51 47 -65 l19
-24 82 63 c45 35 85 59 90 55 23 -26 612 -817 616 -829 4 -9 -39 -47 -119
-107 l-125 -94 44 -58 c24 -33 46 -61 48 -64 3 -2 74 47 157 109 l152 114 291
125 291 125 81 159 81 159 339 102 c186 56 353 109 370 118 69 36 114 114 114
198 0 46 -44 133 -81 160 l-29 20 51 76 c42 62 53 73 64 62 7 -8 83 -99 170
-204 87 -104 167 -198 178 -207 18 -17 76 -18 913 -18 l894 0 0 80 0 80 -80 0
-80 0 0 775 0 776 -25 24 -24 25 -271 0 -271 0 -24 -25 c-25 -24 -25 -27 -25
-200 l0 -175 -215 0 c-216 0 -216 0 -240 -25 -24 -23 -25 -29 -25 -160 l0
-135 -214 0 c-196 0 -216 -2 -237 -19 l-24 -19 -5 -396 -5 -396 -158 189 -157
189 29 89 c76 227 64 456 -35 672 -22 48 -33 85 -28 90 5 4 75 61 155 125
l146 116 267 0 266 0 0 80 0 80 -294 0 -293 0 -177 -141 -176 -141 -39 43
c-21 24 -113 127 -203 229 l-165 185 20 50 c58 146 69 189 58 232 -22 83 -78
124 -167 124 l-54 0 -42 62 c-22 34 -50 73 -62 86 -31 35 -114 71 -166 71 -26
0 -66 -10 -95 -24z m134 -153 c11 -10 42 -49 68 -88 63 -91 99 -115 174 -115
l57 0 -36 -90 -36 -90 -266 0 -266 0 -36 90 -36 90 57 0 c75 0 111 24 174 115
52 78 80 105 107 105 10 0 27 -8 39 -17z m-250 -600 c-35 -71 -49 -135 -49
-216 0 -61 12 -133 24 -145 4 -3 37 4 74 17 l68 22 -1 97 c0 86 3 103 27 153
16 31 37 64 48 74 19 17 21 17 40 0 11 -10 32 -43 48 -74 24 -50 27 -67 27
-152 l-1 -96 61 -21 c33 -12 65 -22 71 -22 17 0 34 79 34 152 0 73 -19 151
-53 220 l-24 48 51 0 51 0 224 -252 c123 -139 241 -282 262 -317 133 -219 143
-486 27 -715 -16 -32 -68 -116 -115 -187 l-86 -129 -513 0 -513 0 52 107 c49
102 52 111 52 187 0 92 -19 138 -77 192 -46 44 -91 65 -153 71 -71 7 -130 -14
-215 -77 -37 -27 -70 -50 -73 -50 -15 0 -32 118 -32 225 1 132 20 217 75 325
43 84 78 128 305 384 l210 236 51 0 51 0 -28 -57z m2931 -983 l0 -720 -160 0
-160 0 0 720 0 720 160 0 160 0 0 -720z m-480 -200 l0 -520 -160 0 -160 0 0
520 0 520 160 0 160 0 0 -520z m-480 -160 l0 -360 -160 0 -160 0 0 360 0 360
160 0 160 0 0 -360z m-2291 186 c31 -16 51 -54 51 -95 0 -16 -36 -102 -80
-190 -44 -89 -80 -173 -80 -187 0 -14 11 -36 25 -49 l24 -25 637 0 c579 0 639
-2 656 -17 22 -20 23 -56 3 -77 -8 -8 -52 -26 -98 -40 -45 -14 -210 -63 -367
-110 -156 -48 -289 -91 -295 -97 -5 -5 -46 -80 -90 -166 l-80 -156 -234 -99
c-128 -55 -237 -96 -241 -91 -4 4 -149 198 -323 429 l-316 422 22 19 c34 30
668 516 691 530 28 16 61 16 95 -1z"/>
<path d="M1840 2636 l0 -83 -30 -6 c-42 -9 -107 -77 -121 -129 -23 -88 12
-182 87 -228 27 -18 58 -25 122 -29 66 -5 87 -10 96 -23 8 -13 8 -23 0 -35
-10 -16 -31 -18 -163 -21 l-151 -3 0 -79 0 -80 80 0 80 0 0 -80 0 -80 80 0 80
0 0 84 0 84 30 5 c42 9 107 77 121 129 23 88 -12 182 -87 228 -27 18 -58 25
-122 29 -66 5 -87 10 -96 24 -8 12 -8 22 0 35 10 15 31 17 163 20 l151 3 0 79
0 80 -80 0 -80 0 0 80 0 80 -80 0 -80 0 0 -84z"/>
</g>
</svg>
