<?xml version="1.0" standalone="no"?>
<!DOCTYPE svg PUBLIC "-//W3C//DTD SVG 20010904//EN"
 "http://www.w3.org/TR/2001/REC-SVG-20010904/DTD/svg10.dtd">
<svg version="1.0" xmlns="http://www.w3.org/2000/svg"
 width="512.000000pt" height="512.000000pt" viewBox="0 0 512.000000 512.000000"
 preserveAspectRatio="xMidYMid meet">

<g transform="translate(0.000000,512.000000) scale(0.100000,-0.100000)"
fill="#fff" stroke="none">
<path d="M386 5029 c-62 -15 -153 -68 -197 -116 -22 -24 -55 -74 -72 -111
l-32 -67 0 -1536 0 -1535 37 -76 c45 -91 103 -147 196 -191 66 -31 71 -32 235
-35 l167 -4 0 -175 c0 -109 5 -191 12 -217 16 -55 99 -138 154 -154 58 -17
730 -17 788 0 55 16 138 99 154 154 7 26 12 108 12 218 l0 176 80 0 80 0 0
-325 c0 -307 -1 -325 -18 -325 -36 0 -143 -43 -202 -81 -149 -96 -242 -249
-257 -424 -5 -69 -4 -74 20 -99 l26 -26 991 0 991 0 26 26 c24 25 25 30 20 99
-7 79 -38 176 -80 248 -66 112 -213 219 -344 249 l-53 13 0 322 0 322 808 3
808 3 76 37 c91 45 147 103 191 196 l32 67 0 1535 0 1535 -32 67 c-44 93 -100
151 -191 196 l-76 37 -2155 2 c-1279 0 -2172 -3 -2195 -8z m4328 -161 c55 -16
138 -99 154 -154 17 -60 17 -2968 0 -3028 -16 -55 -99 -138 -154 -154 -32 -9
-375 -12 -1458 -12 l-1416 0 0 240 0 240 1415 0 1416 0 24 25 25 24 0 1311 0
1311 -25 24 -24 25 -2111 0 -2111 0 -24 -25 -25 -24 0 -1311 0 -1311 25 -24
c23 -24 29 -25 160 -25 l135 0 0 -240 0 -240 -136 0 c-78 0 -154 5 -178 12
-55 16 -138 99 -154 154 -17 60 -17 2968 0 3028 15 51 99 137 148 153 53 17
4257 18 4314 1z m-154 -1508 l0 -1200 -1360 0 -1360 0 0 80 0 80 1175 0 1176
0 24 25 25 24 0 991 0 991 -25 24 -24 25 -1631 0 -1631 0 -24 -25 -25 -24 0
-824 0 -825 -30 -12 c-42 -17 -104 -90 -118 -138 -7 -24 -12 -109 -12 -216 l0
-176 -80 0 -80 0 0 1200 0 1200 2000 0 2000 0 0 -1200z m-2080 715 c0 -152 -1
-165 -18 -165 -36 0 -143 -43 -202 -81 -114 -73 -190 -174 -236 -309 -26 -76
-26 -244 0 -320 64 -189 210 -331 388 -377 l68 -17 0 -163 0 -163 -320 0
c-289 0 -320 2 -320 16 0 41 -27 100 -67 144 -69 77 -86 80 -435 80 l-298 0 0
80 0 80 135 0 c131 0 137 1 160 25 l25 24 0 431 0 431 -25 24 c-23 24 -29 25
-160 25 l-135 0 0 200 0 200 720 0 720 0 0 -165z m1600 -35 l0 -200 -135 0
c-131 0 -137 -1 -160 -25 l-25 -24 0 -431 0 -431 25 -24 c23 -24 29 -25 160
-25 l135 0 0 -200 0 -200 -720 0 -720 0 0 163 0 163 68 17 c133 34 278 148
340 266 53 101 67 156 67 271 0 76 -5 120 -19 160 -46 135 -122 236 -236 309
-59 38 -166 81 -202 81 -17 0 -18 13 -18 165 l0 165 720 0 720 0 0 -200z
m-1600 -680 c0 -323 -2 -390 -14 -390 -7 0 -45 16 -83 35 -86 43 -144 103
-186 193 -29 61 -32 76 -32 162 0 86 3 101 32 162 42 90 100 150 186 193 38
19 76 35 83 35 12 0 14 -67 14 -390z m257 355 c86 -43 144 -103 186 -193 29
-61 32 -76 32 -162 0 -86 -3 -101 -32 -162 -42 -90 -100 -150 -186 -193 -38
-19 -76 -35 -83 -35 -12 0 -14 67 -14 390 0 323 2 390 14 390 7 0 45 -16 83
-35z m-1537 -355 l0 -320 -80 0 -80 0 0 320 0 320 80 0 80 0 0 -320z m2880 0
l0 -320 -80 0 -80 0 0 320 0 320 80 0 80 0 0 -320z m-2425 -825 l25 -24 0
-536 0 -535 -400 0 -400 0 0 535 0 536 25 24 24 25 351 0 351 0 24 -25z m1305
-1495 l0 -320 -400 0 -400 0 0 320 0 320 400 0 400 0 0 -320z m-1280 105 c0
-131 -1 -137 -25 -160 l-24 -25 -351 0 -351 0 -24 25 c-24 23 -25 29 -25 160
l0 135 400 0 400 0 0 -135z m1522 -622 c90 -42 150 -100 193 -186 19 -38 35
-76 35 -83 0 -12 -141 -14 -870 -14 -729 0 -870 2 -870 14 0 32 73 156 114
194 49 45 126 87 183 101 21 5 288 9 593 8 l555 -2 67 -32z"/>
<path d="M4240 1760 l0 -80 80 0 80 0 0 80 0 80 -80 0 -80 0 0 -80z"/>
<path d="M4560 1760 l0 -80 80 0 80 0 0 80 0 80 -80 0 -80 0 0 -80z"/>
<path d="M1040 2320 l0 -80 80 0 80 0 0 80 0 80 -80 0 -80 0 0 -80z"/>
<path d="M1360 2320 l0 -80 80 0 80 0 0 80 0 80 -80 0 -80 0 0 -80z"/>
<path d="M1040 2000 l0 -80 80 0 80 0 0 80 0 80 -80 0 -80 0 0 -80z"/>
<path d="M1360 2000 l0 -80 80 0 80 0 0 80 0 80 -80 0 -80 0 0 -80z"/>
<path d="M1040 1680 l0 -80 80 0 80 0 0 80 0 80 -80 0 -80 0 0 -80z"/>
<path d="M1360 1680 l0 -80 80 0 80 0 0 80 0 80 -80 0 -80 0 0 -80z"/>
</g>
</svg>
